<?xml version="1.0" encoding="iso-8859-1"?>
<!-- Generator: Adobe Illustrator 18.0.0, SVG Export Plug-In . SVG Version: 6.00 Build 0)  -->
<!DOCTYPE svg PUBLIC "-//W3C//DTD SVG 1.1//EN" "http://www.w3.org/Graphics/SVG/1.1/DTD/svg11.dtd">
<svg version="1.1" id="Capa_1" xmlns="http://www.w3.org/2000/svg" xmlns:xlink="http://www.w3.org/1999/xlink" x="0px" y="0px"
	 viewBox="0 0 468.193 468.193" style="enable-background:new 0 0 468.193 468.193;" xml:space="preserve">
<g>
	<path style="fill:#020202;" d="M438.268,0.099H116.324c-16.529,0-29.925,13.397-29.925,29.933v25.057h31.212V31.312H436.98V350.68
		h-23.973v31.213h25.261c16.529,0,29.925-13.397,29.925-29.933V30.032C468.193,13.496,454.797,0.099,438.268,0.099z"/>
	<path style="fill:#020202;" d="M351.869,86.301H29.925C13.396,86.301,0,99.698,0,116.233v321.93
		c0,16.535,13.396,29.932,29.925,29.932h321.944c16.529,0,29.925-13.396,29.925-29.932v-321.93
		C381.794,99.698,368.398,86.301,351.869,86.301z M350.582,436.881H31.213V117.514h319.369V436.881z"/>
	<path style="fill:#020202;" d="M55.743,417.465l72.674,0.016c2.12,0,4.031-1.281,4.84-3.232c0.807-1.965,0.365-4.222-1.136-5.715
		l-25.314-25.3l45.158-45.173c6.096-6.096,6.096-15.972,0-22.069c-6.096-6.096-15.972-6.096-22.069,0l-45.157,45.175l-25.284-25.284
		c-1.501-1.509-3.758-1.95-5.715-1.143c-1.958,0.809-3.232,2.727-3.232,4.848v72.637C50.507,415.118,52.854,417.465,55.743,417.465z
		"/>
	<path style="fill:#020202;" d="M274.461,383.234l-25.307,25.3c-1.494,1.493-1.943,3.75-1.135,5.715
		c0.815,1.951,2.72,3.232,4.838,3.232l72.676-0.016c2.887,0,5.234-2.348,5.234-5.242v-72.637c0-2.12-1.28-4.039-3.23-4.848
		c-1.958-0.807-4.214-0.365-5.715,1.143l-25.284,25.284l-45.174-45.175c-6.096-6.096-15.972-6.096-22.067,0
		c-6.096,6.098-6.096,15.974,0,22.069L274.461,383.234z"/>
	<path style="fill:#020202;" d="M53.739,218.879c1.957,0.807,4.214,0.365,5.715-1.144l25.292-25.284l45.149,45.143
		c3.049,3.048,7.042,4.573,11.035,4.573c3.992,0,7.986-1.525,11.034-4.573c6.096-6.096,6.096-15.972,0-22.068l-45.151-45.142
		l25.292-25.3c1.501-1.494,1.951-3.75,1.136-5.716c-0.809-1.95-2.72-3.231-4.84-3.231l-72.659,0.016
		c-2.889,0-5.236,2.347-5.236,5.242v72.637C50.507,216.151,51.781,218.071,53.739,218.879z"/>
	<path style="fill:#020202;" d="M240.33,242.168c3.994,0,7.985-1.525,11.034-4.573l45.159-45.143l25.3,25.284
		c1.501,1.509,3.756,1.95,5.715,1.144c1.958-0.809,3.23-2.729,3.23-4.848v-72.637c0-2.895-2.347-5.242-5.234-5.242l-72.676-0.016
		c-2.118,0-4.023,1.281-4.838,3.231c-0.808,1.966-0.365,4.222,1.135,5.716l25.3,25.3l-45.157,45.142
		c-6.096,6.097-6.096,15.973,0,22.068C232.344,240.642,236.338,242.168,240.33,242.168z"/>
</g>
<g>
</g>
<g>
</g>
<g>
</g>
<g>
</g>
<g>
</g>
<g>
</g>
<g>
</g>
<g>
</g>
<g>
</g>
<g>
</g>
<g>
</g>
<g>
</g>
<g>
</g>
<g>
</g>
<g>
</g>
</svg>
