<svg xmlns="http://www.w3.org/2000/svg" width="640" height="640" viewBox="0 0 480 480"><g fill="#fff"><path d="M153.3 402.9c-4.5-4.9-13.3-6-19.7-5.1-24.8 3.7-22.4 36.5-8 52a18 18 0 0011.6 8h.2c.4 0 .6 0 .7-.3.2 0 .3-.2.4-.3a136 136 0 0013-21.3c2.5-5.5 4.4-11 5.4-16.8 1-5.7.5-11.7-3.6-16.2zM130 420c-1.9-4.7 1-9.4 5.4-11.7.3.4 1 .7 1.6.4 5.4-3.3 9 2.8 9 8.2v1.5c0 1.7-.7 3.4-1.8 4.7-4.1 4-12.3 1.6-14.2-3.1zm-14.6-71l-.3-.5c.5-.9.2-2.4-.9-2.8-1.7-.7-3.4-1.3-5.2-1.8 5.4-4.5 8-14.7 1.8-19.6-.8-.6-5.7-2.7-5.6-3.7.1-1.7.2-4.3-.6-6-1.6-3-4.2-3.4-7-3.5-1.6-8.2-8-13.8-16.1-9.4-4.4 2.3-7.7-1.3-12.2.3-3.4 1.2-4.2 5.8-4.6 9.1v-4.5c0-.8-.5-1.5-1.3-1.8-5.1-2.3-11-2.3-16.2 0-.7.3-1.3 1-1.2 1.8l1.6 17.4c-4.4-6.5-11-12.1-17.6-11 1.2-8-.8-23.2-10.6-23.7-9.7-.6-7.7 13.5-5.6 20.5-2.5-.3-5 .3-7.5.4-1.1 0-1.7 1.2-1.2 2.3 3.4 7.1 9.1 10.3 16 8.2-1.2 3-1.5 6.3-1 9.4A26 26 0 0030.3 346c-6.3.3-12.6.8-18.6 2.2a.8.8 0 00-1-.5c-9 2.1-9.4 12.5-7.4 20.6.2 1 1 1.4 1.8 1.5l5.2.5c1.5 1.9 2.8 5.5 3.7 7.3 2 4 3 8.3 4.2 12.6 2 7 3.9 13.8 6.6 20.6 0 .4.3.6.5.7 0 .3.2.5.5.7 18 11.4 46.6 9.1 66.2 4 .3 0 .6-.2.8-.3 1.1.4 2.6 0 3.1-1.6 5.2-14 7.7-28.8 11.2-43.4 8.5-2.5 13.7-9.1 8.3-22zm-50.7-37c.2.6 1.2.6 1.4 0 1.5-6 6.3-8.8 11.5-5.4.5.3 1 .3 1.5 0 6.5-4.3 14.9-4.1 15.2 6.4 0 1 .8 1.8 1.8 1.8 5 0 5.7 3.6 5.2 8.4 0 .8.6 1.7 1.4 1.8 10.9 2 8.1 10.7 3 17.4a2 2 0 00-.4.6c-2.3-.4-4.7-.7-7-.8 3.8-3.2 6.3-8.6 4.2-13.8-2.2-5.4-7-6.1-11.3-4-1.1-3.3-2.6-6.3-5.8-7.5-2.9-1-5.6 1.6-7.6 4.2-1.3-4.1-4-8.6-8.3-6.2-2.4 1.2-4 3.3-5 5.7l.2-8.5zm-.3 18.2c.3 0 .5-.4.5-.7 0-3.6 1-7.1 3.1-10 4.1-5.6 7 1 7.8 5.4.2 1 1.7 1.5 2.4.6a20 20 0 014.5-4.8c3.7-2.7 5.4 5 5.8 6.8.3 1.2 1.6 1.7 2.5 1.1 3.5-2.1 7.2-2.5 8.5 2.3 1.1 4.3-2.6 7.7-5.5 9.8-.5.3-.8.8-.8 1.4-9.9.2-20.1 2-29 3H64zm-13.4-23c14.6-6.2 10 14.8 9.7 23A735 735 0 0060 360c-1.7-.6-2-.5-5.3-.7-.6 0-1.2.2-1.5.7 0-8.3-.4-16.5-1-24.7-.1-3.6-4.8-26.7-1.2-28.2zm-29 11.6c-5.6 1-10.1-1.1-13.3-5.9 2.3-.3 4.5-.7 6.7.1.9.4 2-.7 1.6-1.7-1.6-4.1-5.6-18.6 2.4-19 8.2-.2 7.9 15.4 8 20.7 0 .3.1.6.3.8-2.4 1-4.4 2.8-5.7 5zm4.2.3c2.8-3 7-3 10.3-1.4 5.7 2.8 8.7 9 11.8 14.5l1.1 13.2-16 .5a1 1 0 00-.3-.6c-6.6-5.7-14.6-17.8-6.9-26.2zM92 411.2c-.4-.1-.9-.2-1.3-.1-21 3.1-41.6 4-62.5-.8v-1c-3.2-8.4-4.4-17.7-7.4-26.3a38 38 0 00-4.5-9.6 10 10 0 00-3.1-2.9c26.8 1.9 53.5-1 80.3 1.5 3.8.4 7.8.2 11.3-.5-5.1 13-9 26.3-12.8 39.7zm8.9-43.6c-7.5.3-15-1.2-22.4-1.9-12.8-1.2-26.2 1-39.1 1.2-7.6.2-15.1 0-22.7-.3-1.5 0-9.8.6-10.4-2a14 14 0 013.4-13.4h.1c13-1 27.3 1.9 40-1.7.5 4.9 1 9.8 1.7 14.7.1 1.1 1.8.8 1.8-.2v-1.2c.3.4.8.7 1.4.7l6.6 1c1.2.4 2.3-.5 2.3-1.8l.3-15.7.3.1c15.9 1.5 32 1.4 48 2-.2.4-.3 1-.2 1.4 1.9 11.3 0 16.7-11.1 17.1zm0 0"/><path d="M90.5 374.5l-5.8 6.5a94 94 0 00-6.9-5.6c-1.2-1-2.8 1.3-1.6 2.3 2.2 1.8 4.3 3.7 6.4 5.7-2.6 2.8-5.3 5.7-8.1 8.4l-1.1-1-6.9-6.7 1.7-1.4c1-.8.1-2.6-1-1.8l-2.3 1.7-7-6.8c-1.1-1-2.7.7-1.6 1.7l6.6 6.7c-3 2.4-5.9 5-8.7 7.8-3-2.9-6.1-5.6-9.3-8.3 2.2-1.8 4.3-3.5 6.7-5 .8-.6 0-1.8-.8-1.4a37 37 0 00-7.6 5l-8.3-6.8-1-.8c-.8-.6-1.7.7-1 1.3l.2.2c-2 1.2-4 2.7-5.2 5-.5 1.2 1 2.3 1.7 1.1 1.1-2.2 3.3-3.3 5.4-4.4 2.2 2 4.3 3.9 6.3 6-2.8 2.5-5.4 5.3-7.9 8.1l-3.1-3c-.5-.4-1.2.3-.7.8l2.8 3.4-.7.7c-.7.8.4 2 1.1 1.2l.6-.6c2.5 3 5 6 7.8 8.7l-3.3 2.2c-.7.4-.2 1.6.5 1.3l4.2-2.2c1.5 1.3 3 2.6 4.5 3.7 1 .6 2-.8 1.2-1.7-1-1.2-2.2-2.3-3.4-3.5 3-2 5.7-4.3 8.4-6.7l6.2 6.2c-1.2.6-2.5 1.1-3.8 1.5-.8.3-.5 1.6.4 1.4 1.7-.3 3.3-.8 5-1.5 2.7 2.5 5.4 5 8.4 7 1.1.9 2.4-1 1.4-2l-6.2-6.6c3.4-1.7 6.6-4 9.6-6.5l5.5 5.5-1.2 1.6c-.7 1.2 1 2.2 1.8 1.1l1-1.3c1.8 1.7 3.8 3.2 5.8 4.4 1.2.7 2.3-1 1.4-2a63 63 0 00-4.9-5c1.9-2 3.7-3.8 5-6.2.7-1.2-.9-2.6-1.7-1.5-1.6 2.1-3.4 4-5 6l-5.3-4.6a78 78 0 008-8.3l4.6 4.9c1 1.1 2.7-.4 2-1.6-1.4-2.1-2.9-4-4.5-5.7l5.3-6.8c1-1.2-.5-3-1.6-1.8zm-47 27l-8.8-8.2c2.6-2.8 5.3-5.4 8.2-7.9l8.6 9c-2.6 2.5-5.3 5-8 7.1zm19.6-.8l-7-7 8.4-7.9 7 7 .8 1c-2.9 2.6-5.9 5-9.2 6.9zm-32.7-74.1c-1.5 2.8-3.5 6-3.6 9.3 0 1 1.4 1 1.5 0 .2-3 2.4-5.8 3.4-8.5.4-1-.7-1.7-1.3-.8zm6.1 4.6c-3.4 2.3-6.4 5.1-6.4 9.8 0 1.4 2 1.4 2 0 .2-3.6 2.9-6 5.4-8 1-.8.1-2.6-1-1.8zm4.7 6.8c-1.7 1.4-3.8 2.5-5.8 3.6-.9.5 0 1.9.8 1.4 2.1-1 4.4-2 6-4 .7-.7-.3-1.7-1-1zm8.5-88a5 5 0 004 2l26.6-.1c1 0 2 0 2.7-.2l2.3-.1c1.2 0 2.2-.7 3-2 .7-1.2 1-2.6 1-4.3 0-3.9-1.5-5.8-4.5-5.8H64.5c-2.7 0-4.2 0-4.5-.2-.7-.2-1-.5-1-1 0-6.4-.7-19.7-2-40a978.4 978.4 0 01-1.7-44l-1.6-57.6c-.9-20.7-1.3-50.4-1.3-89.1 0-3-2-4.6-5.8-4.6-1.3 0-2.5.3-3.4 1-1 .7-1.4 1.6-1.4 2.8 0 13.3.6 35.7 1.7 67.2 1 28.5 1.6 51 1.6 67.2 0 11.2.6 26.4 1.7 45.7a872 872 0 011.6 45.5v7.7l-.2 5.2c0 1.9.5 3.5 1.5 4.8zm100.1-2.4c3.8-2.4 7-5.6 9.5-9.5 2.5-4 4.8-8.8 6.7-14.7a186 186 0 007.6-50.1l.1-13.8-.3-19.1-.3-19.2.6-1.6c0-13.6-1.2-26.6-3.5-39a91.1 91.1 0 00-10.4-30.4c-4-7.5-8.2-11.7-12.5-12.4l-7.3-1.2c-4.4-.7-8.9-1.9-13.5-3.5-2-.5-3.5-.8-4.6-.8-15.9 0-23.8 29.9-23.8 89.7v11.2c0 78.9 12.9 118.3 38.7 118.3 5 0 9.3-1.3 13-3.9zm-41-102l-.4-12.8c0-2.5.3-7.5.8-15s.8-12.6.8-15.1c.7-3.3 1.2-7.4 1.5-12.2.3-4.7.4-9 .5-13l.1-7.3c.1-4.7.6-9.3 1.5-13.8 1.8-9.5 7.8-14.2 17.9-14.2 5 0 9.7 1.6 14 4.8 4.2 3.2 7.5 7.4 10 12.7 2.5 5.3 3.7 11 3.7 17.2l-.6 1.6 1.2 2.5c0 8.5.7 21.1 2 38a393.4 393.4 0 01.5 68.8c-1 12.7-3.5 24.9-7.6 36.6-2 5.7-4.7 10-8 13.2a16 16 0 01-11.2 4.7c-4.4 0-8.3-2.6-11.6-7.7a59.8 59.8 0 01-7.4-17.2 267.2 267.2 0 01-7.5-59.1zM249.9 247c2.8-2 4.2-3.8 4.2-5.4 0-2.3-1.7-3.5-5-3.5-2.3 2-5 2.9-8.2 2.9a35 35 0 01-14-2.6c-4-1.7-7.1-4.3-9.6-7.6a46.7 46.7 0 01-9.7-23.3 152.7 152.7 0 01-1.7-26.1c0-8.7.2-19.4.6-32.3.5-12.9.7-23.7.7-32.5l.6-1.7a209.5 209.5 0 016.7-52.2c2-6 4.7-11 8-15 3.3-3.9 7.1-5.8 11.4-5.8h13.9l4.3-4.8-.3-2c0-.3-.4-.8-1-1.3l-1.4-.7-1.8-.5c-.3 0-.6 0-.8-.2l-1-.1h-13.2c-2 1-4.7 2.1-8.2 3.4-4 1.6-7 3.1-9 4.6-4 3-7.4 7.8-10.2 14.6-2.8 6.6-4.9 13.2-6.2 19.8-1.3 6.6-2.3 14.8-3 24.6a480.4 480.4 0 00-1.4 40.4v36.7c0 8 .2 14.4.6 19.3 1 16.1 3.7 28.4 8.2 36.8 2.7 4.8 5.5 8.4 8.6 10.8 3 2.4 6.6 4.2 10.8 5.5 3.7 1 6.2 2 7.7 2.8h11c2.8-1 5.6-2.5 8.4-4.6zm61.6-46.6c5.6.5 9.6.7 12.1.7 6.9 0 12.3.5 16.3 1.6l5.5 42c.3 2.3.7 4 1.1 5 .5 1 1.2 1.5 2.1 1.8 1 .3 2.7.4 5 .4 1.7-1 2.6-2.6 2.6-4.8v-.9a4347.2 4347.2 0 01-18.4-155.8l-2-17a258.4 258.4 0 01-2.3-35.3c0-1.3-.6-2.5-1.9-3.4a6.8 6.8 0 00-4.1-1.4c-1.3 1.3-3.3 1.9-6 1.9-.9 0-1.6 0-2.2-.2l-2.3-.2a129.3 129.3 0 00-3.7 22.6l-.6 5.2-1.3 11.8c-1.1 6.8-3 16.8-5.8 29.9a539 539 0 00-5.9 28l-3.5 21.3-2 11.3c-.7 4.8-1.4 9.1-2.2 13l-3.7 20c-3 16.5-6.3 31.6-10 45.3l-.6 2c0 1.2.7 2.4 2.2 3.6 1.5 1.2 3 1.8 4.4 1.8 1.7 0 3.3-1.8 5-5.5 1.3-3.5 2.6-8 3.8-13.5 2-10 3.2-17.7 3.7-23l.7-6.5.2-.5.1-.6c.1-.5.4-.9.7-1.1.3-.2.8-.3 1.6-.3 2 0 5.8.3 11.4.8zm-3.5-57.2c.5-2 6.5-30.7 17.9-85.9 6.7 68.7 11 114.3 12.6 136.8h-3.4c-6.1 0-13.5-.4-22-1.3-8.5-.8-12.7-1.7-12.7-2.8a316 316 0 017.6-46.8zM390 250c1 1.3 2.3 2 4 2a1137.8 1137.8 0 0029.3-.4l2.3-.1c1.1 0 2.1-.6 2.9-1.9.7-1.3 1-2.7 1-4.4 0-3.9-1.5-5.8-4.4-5.8h-20.3c-2.7 0-4.2 0-4.6-.2-.7-.2-1-.5-1-.9 0-6.5-.6-19.8-1.9-40-1.1-21.3-1.7-36-1.7-44L394 96.7a2295 2295 0 01-1.3-89.2c0-3-2-4.6-5.8-4.6-1.3 0-2.5.3-3.4 1-1 .7-1.5 1.6-1.5 2.8 0 13.3.6 35.7 1.8 67.2 1 28.6 1.6 51 1.6 67.2 0 11.2.5 26.4 1.6 45.7 1 19.3 1.6 34.4 1.6 45.5v7.7l-.1 5.2c0 1.9.5 3.5 1.5 4.8zM175.8 458.8c1.5.7 3 1 4.5 1 1.1 0 3.3-1.1 6.4-3.3a59.6 59.6 0 0018.5-22.3 119 119 0 0011.5-49.4V379l-.5-7.9a193.7 193.7 0 00-2.6-18.4 79 79 0 00-2.7-9.3c-1-3-2.4-5.9-4-8.7-1.7-2.8-3.4-5-5.3-6.8a23.8 23.8 0 00-16.3-6.4h-.9c-9.1 0-13.7 1.5-13.7 4.4 0 1.1.4 2.8 1.2 5a29 29 0 011.4 4.4c.4 3 .7 11.5 1 25.6v2.3l.4 19.7 1.2 50 .6 16c.1.9-.3 2.1-1.4 3.7a8.6 8.6 0 00-1.5 3.6c0 1 .7 2 2.2 2.6zm5-63.5a601 601 0 01-1.4-34.9c0-3.3-.3-8.3-.8-15-.5-6.7-.8-11.8-.8-15.3 0-1.3 1.3-2 3.9-2 19.6 0 29.4 17.8 29.4 53.4 0 4-.2 8.2-.5 12.6a142.2 142.2 0 01-7.2 31.7c-2 5.2-4.8 10-8.4 14.5a38.8 38.8 0 01-12 10.3h-.8V430c0-7.7-.5-19.3-1.4-34.8zm61.9 64.5c.9 0 2-.4 3.5-1.2a10 10 0 013.7-1l3.3.2c1.3.3 2.5.4 3.4.4 1.2 0 2.2-.4 3.1-1.1a4 4 0 001.3-3c0-1.9-2-2.8-6-2.8l-3 .1-2.9.1c-3 0-4.4-.7-4.4-2l.2-.4c-.4-.6-.6-2.5-.6-5.6v-3.6l.2-2.6c0-5.5-.2-12.9-.7-22-.5-9.1-.7-16.5-.7-22l.3-24 .3-23.9c0-6-.2-9.5-.6-10.7l1-.6c2.8 0 4.7.4 5.8 1.2l4.6-.4.5-1.5c0-1.5-1.2-2.6-3.5-3.5-2.7-1-5.8-1.5-9.3-1.8-5.7-.5-10.8-.8-15.2-.8-.9 0-1.9.3-3 .8-1.2.5-1.8 1-1.8 1.6 0 2.3 1.3 3.5 3.8 3.5l2.5-.2 2.3-.2c2.8 0 4.8.2 6 .6.7 6 1 13.7 1 23.2l-.5 23.4-.5 23.5c0 4.3.3 11.7.8 22 .5 9.1.7 16.5.7 22l-.3 2.4-.4 1.8-.8.8H231l-1.1 1c-.7.5-1 .9-1.2 1.2-.2.3-.3.7-.3 1.2.8 1.4 2.6 2.1 5.5 2.1h1.7l1.6-.2c.5 1.3 2.4 2 5.5 2zm67.3-2.6c0-1.1-.5-2.7-1.6-4.6l-1.3-2.7-.3-.7c-.4-1-3-11.7-8-32-5-20.4-7.5-30.8-7.5-31.3l2.6-5c2-3.7 3.8-7.6 5.3-11.7 1.5-4 2.3-7.3 2.3-9.8v-14.2c0-6-2-10.7-6-14-4-3.3-9.4-5-16-5-1.2 0-2.1.4-2.8 1.3-.7.9-1 1.7-1.2 2.5l-.2 3.6c0 25.7 1 66.7 3.1 123.2l1.4 1.6h2.9l1.4-3.3a1028.3 1028.3 0 01-3.3-63.4c0-1.9 1.4-2.8 4.3-2.8h.8c1.3 0 2.8 3.3 4.4 9.9 1.7 7 3.2 14.3 4.5 22 1.5 9.2 3.2 17.4 5 24.7a40.2 40.2 0 005 13.5l3 1c1.4 0 2.1-1 2.1-2.8zM281.1 360c-.3-9.3-.4-17.2-.4-23.7 0-1.1.2-2.3.6-3.4.4-1 1-1.6 1.7-1.6 2.9 0 5.2.6 7.1 1.7a9.9 9.9 0 014 5.1 46.5 46.5 0 011.3 22.2c-.6 3.3-1.4 6.8-2.4 10.5-1 3.8-2.5 7-4.5 9.5s-4.2 3.8-6.7 3.8l-.3-.4c0-6.5-.1-14.4-.4-23.7zm45.9 92.5l-.1 2.5c.2 2.7 1.5 4 4 4h16c5.7 0 8.6-1.2 8.6-3.5 0-1.7-2-2.5-5.8-2.5l-3.7.2-3.5.1c-3.1 0-5.3-.5-6.4-1.4-1.2-1-1.9-3-2-6-.4-5.3-.6-10.5-.6-15.6l.2-14 .2-13.8c0-7.3-.1-12.5-.4-15.5v-.6l1-1h.8l6.4 1c.9 1 2.4 1.5 4.5 1.5 1.2 0 2.2-.5 2.9-1.5.7-1 1-2.2 1-3.6 0-2.3-2.5-3.5-7.6-3.5l-3.4.2-3.2.2c-1.9 0-2.8-1.8-2.8-5.5 0-4 .1-9 .4-15.2a352.8 352.8 0 00.2-23.6l1-1.2a64 64 0 0115.8 3.8c2.5-1.4 3.7-2.7 3.7-4 0-1.2-1.2-2.2-3.7-3a59 59 0 00-8.5-1.6c-3-.3-4.9-.6-5.7-.8-.7-.8-1.7-1.2-3.2-1.2-2 0-3.5.4-4.4 1.3-.8.9-1.2 2.3-1.2 4.2l.3 11.7c.3 4.7.4 8.6.4 11.7 0 7.5-.2 17.3-.6 29.6a308.9 308.9 0 00-.2 42.4c.3 6.3.4 10.6.4 12.9 0 2.7-.5 5.4-1.4 8l.7.8zm73.5 4.7c1.5-1.3 2.2-2.4 2.2-3.3 0-1.3-.9-2-2.6-2a6.3 6.3 0 01-4.3 1.6c-2.8 0-5.2-.5-7.3-1.5-2.1-1-3.8-2.6-5.1-4.7a30 30 0 01-5.1-14 142.7 142.7 0 01-1-15.8c0-5.3.1-11.9.4-19.6l.3-19.7.4-1 .2-8.6a161.2 161.2 0 013.3-23.1c1-3.7 2.5-6.7 4.2-9 1.7-2.4 3.7-3.6 6-3.6h7.3l2.3-2.9-.1-1.2-.6-.8-.7-.5-1-.3h-.4l-.5-.2h-7c-1 .7-2.5 1.4-4.3 2.1-2 1-3.6 2-4.7 2.8-2.1 1.8-4 4.8-5.4 8.9-1.5 4-2.6 8-3.3 12a273.7 273.7 0 00-2.2 27.4l-.1 12v22.2c0 4.8.1 8.7.3 11.7a62 62 0 004.4 22.3 16.5 16.5 0 0010.2 9.9c1.9.7 3.2 1.2 4 1.7h5.8c1.5-.7 3-1.6 4.4-2.8zm38.5.6c.7.9 1.6 1.3 2.7 1.3.8 0 1.4-.2 1.8-.7l.6-1.5.1-2.4V441l-.1-14.4v-85l-.1-10.2h-.1l1.5-.2h15.7c2.3 0 3.4-.9 3.4-2.6 0-1-.3-1.8-.8-2.3-.5-.5-1.5-.7-3-.7h-19.2l-17.6.1c-3 0-5.3.2-7 .5-1.5.3-2.4.7-2.8 1-.3.3-.5 1-.5 1.9 0 .9.3 1.5 1 2 .8.4 1.7.6 2.6.6H437c.3 0 .5 6.3.5 19l-.1 11.4-.1 5c0 5 .1 14.3.4 28.2l.5 28V439l-.1 15.7c0 1.3.3 2.3 1 3.1zm0 0"/></g></svg>
